<mxfile host="app.diagrams.net" modified="2023-07-22T19:15:03.600Z" agent="Mozilla/5.0 (Windows NT 10.0; Win64; x64) AppleWebKit/537.36 (KHTML, like Gecko) Chrome/114.0.0.0 Safari/537.36" etag="v1rT5hYztzZZ-t_m6Ese" version="21.6.3" type="github">
  <diagram name="Page-1" id="1OtT6CTpICbd8W9FNhoH">
    <mxGraphModel dx="1290" dy="541" grid="1" gridSize="10" guides="1" tooltips="1" connect="1" arrows="1" fold="1" page="1" pageScale="1" pageWidth="850" pageHeight="1100" math="0" shadow="0">
      <root>
        <mxCell id="0" />
        <mxCell id="1" parent="0" />
        <mxCell id="YbTgLNQ8XcuvHkaFLnRo-4" style="edgeStyle=orthogonalEdgeStyle;rounded=0;orthogonalLoop=1;jettySize=auto;html=1;entryX=0.5;entryY=0;entryDx=0;entryDy=0;" edge="1" parent="1" source="YbTgLNQ8XcuvHkaFLnRo-1" target="YbTgLNQ8XcuvHkaFLnRo-3">
          <mxGeometry relative="1" as="geometry" />
        </mxCell>
        <mxCell id="YbTgLNQ8XcuvHkaFLnRo-1" value="start" style="ellipse;whiteSpace=wrap;html=1;" vertex="1" parent="1">
          <mxGeometry x="305" y="90" width="120" height="80" as="geometry" />
        </mxCell>
        <mxCell id="YbTgLNQ8XcuvHkaFLnRo-2" value="end" style="rounded=1;whiteSpace=wrap;html=1;" vertex="1" parent="1">
          <mxGeometry x="305" y="410" width="120" height="60" as="geometry" />
        </mxCell>
        <mxCell id="YbTgLNQ8XcuvHkaFLnRo-5" style="edgeStyle=orthogonalEdgeStyle;rounded=0;orthogonalLoop=1;jettySize=auto;html=1;entryX=0.5;entryY=0;entryDx=0;entryDy=0;" edge="1" parent="1" source="YbTgLNQ8XcuvHkaFLnRo-3" target="YbTgLNQ8XcuvHkaFLnRo-2">
          <mxGeometry relative="1" as="geometry" />
        </mxCell>
        <mxCell id="YbTgLNQ8XcuvHkaFLnRo-3" value="&quot;michael&quot;" style="shape=document;whiteSpace=wrap;html=1;boundedLbl=1;" vertex="1" parent="1">
          <mxGeometry x="305" y="260" width="120" height="80" as="geometry" />
        </mxCell>
      </root>
    </mxGraphModel>
  </diagram>
</mxfile>
